<svg width="703" height="587" viewBox="0 0 703 587" fill="none" xmlns="http://www.w3.org/2000/svg">
<path d="M379.835 320.701L352.028 295.863L323.763 320.177L91.7618 519.744C67.5225 482.116 51.6529 439.519 45.4601 394.848C37.3061 336.03 46.2744 276.108 71.2915 222.254C96.3086 168.4 136.315 122.897 186.521 91.1891C236.728 59.4816 295.008 42.9137 354.387 43.4685C413.765 44.0232 471.725 61.6772 521.331 94.3172C570.936 126.957 610.085 173.201 634.092 227.512C658.098 281.824 665.945 341.903 656.694 400.559C649.667 445.107 633.005 487.399 608.067 524.567L379.835 320.701Z" fill="#252422" stroke="#FBC89C" stroke-width="85.0662"/>
</svg>
