<svg width="12" height="12" viewBox="0 0 12 12" fill="none" xmlns="http://www.w3.org/2000/svg">
<path d="M8.25 9.897C7.56635 10.2931 6.7901 10.5013 6 10.5005M8 6C8 5.46957 7.78929 4.96086 7.41422 4.58579C7.03914 4.21071 6.53043 4 6 4C5.46957 4 4.96086 4.21071 4.58579 4.58579C4.21072 4.96086 4 5.46957 4 6C4 6.53043 4.21072 7.03914 4.58579 7.41421C4.96086 7.78929 5.46957 8 6 8C6.53043 8 7.03914 7.78929 7.41422 7.41421C7.78929 7.03914 8 6.53043 8 6ZM8 6V6.75C8 7.08152 8.1317 7.39946 8.36612 7.63388C8.60054 7.8683 8.91848 8 9.25 8C9.58152 8 9.89946 7.8683 10.1339 7.63388C10.3683 7.39946 10.5 7.08152 10.5 6.75V6C10.5 5.10998 10.2361 4.23996 9.74162 3.49993C9.24715 2.75991 8.54434 2.18314 7.72208 1.84254C6.89981 1.50195 5.99501 1.41283 5.1221 1.58647C4.24918 1.7601 3.44736 2.18868 2.81802 2.81802C2.18869 3.44736 1.7601 4.24918 1.58647 5.12209C1.41283 5.99501 1.50195 6.89981 1.84254 7.72208C2.18314 8.54434 2.75991 9.24715 3.49994 9.74161C4.23996 10.2361 5.10999 10.5 6 10.5L8 6Z" stroke="#F9B171" stroke-linecap="round" stroke-linejoin="round"/>
</svg>
