<svg width="122" height="132" viewBox="0 0 122 132" fill="none" xmlns="http://www.w3.org/2000/svg">
<g filter="url(#filter0_d_2_808)">
<rect x="30" width="61.0237" height="61.0237" rx="25" fill="#DFDFDF"/>
<path d="M49.6742 24.4511H57.4072V25.0657H50.3831V29.6916H56.9884V30.3062H50.3831V35.385H57.4878V35.9996H49.6742V24.4511ZM58.1001 24.4511H58.9217L62.5626 29.5299L66.284 24.451L71.3459 17.9999L63.0297 30.0637L67.3151 35.9996H66.4613L62.5626 30.5974L58.6477 35.9996H57.81L62.1276 30.0636L58.1 24.4511H58.1001ZM67.6212 25.0657V24.451H76.4336V25.0657H72.3737V35.9995H71.6649V25.0657H67.6212ZM40 24.451H40.8861L53.1044 42.7347L48.0552 35.9995L40.741 25.3245L40.7089 35.9997H40V24.451ZM76.3622 35.1994C76.2173 35.1994 76.1087 35.0873 76.1087 34.9422C76.1087 34.7972 76.2173 34.685 76.3622 34.685C76.5087 34.685 76.6156 34.7972 76.6156 34.9422C76.6156 35.0872 76.5087 35.1994 76.3622 35.1994ZM77.0587 34.5227H77.438C77.4432 34.7281 77.5932 34.8663 77.8139 34.8663C78.0604 34.8663 78.2001 34.7178 78.2001 34.4399V32.6789H78.5863V34.4415C78.5863 34.9422 78.2966 35.2305 77.8173 35.2305C77.3673 35.2305 77.0587 34.9508 77.0587 34.5227V34.5227ZM79.0914 34.5003H79.4742C79.5069 34.7368 79.738 34.8869 80.0708 34.8869C80.3811 34.8869 80.6087 34.7264 80.6087 34.5054C80.6087 34.3156 80.4638 34.2016 80.1345 34.1239L79.8138 34.0463C79.3638 33.9409 79.1587 33.7234 79.1587 33.3574C79.1587 32.9138 79.5207 32.6186 80.0638 32.6186C80.5689 32.6186 80.9379 32.9137 80.9604 33.3333H80.5845C80.5483 33.1037 80.3482 32.9603 80.0586 32.9603C79.7535 32.9603 79.5501 33.1071 79.5501 33.3315C79.5501 33.5093 79.681 33.6112 80.0052 33.6871L80.2793 33.7545C80.7896 33.8736 81 34.0808 81 34.4554C81 34.9319 80.6311 35.2305 80.0415 35.2305C79.4897 35.2305 79.119 34.9456 79.0914 34.5002V34.5003Z" fill="black"/>
</g>
<defs>
<filter id="filter0_d_2_808" x="0" y="0" width="121.024" height="131.024" filterUnits="userSpaceOnUse" color-interpolation-filters="sRGB">
<feFlood flood-opacity="0" result="BackgroundImageFix"/>
<feColorMatrix in="SourceAlpha" type="matrix" values="0 0 0 0 0 0 0 0 0 0 0 0 0 0 0 0 0 0 127 0" result="hardAlpha"/>
<feOffset dy="40"/>
<feGaussianBlur stdDeviation="15"/>
<feColorMatrix type="matrix" values="0 0 0 0 0.0980392 0 0 0 0 0.0980392 0 0 0 0 0.180392 0 0 0 0.04 0"/>
<feBlend mode="multiply" in2="BackgroundImageFix" result="effect1_dropShadow_2_808"/>
<feBlend mode="normal" in="SourceGraphic" in2="effect1_dropShadow_2_808" result="shape"/>
</filter>
</defs>
</svg>
