<svg width="122" height="132" viewBox="0 0 122 132" fill="none" xmlns="http://www.w3.org/2000/svg">
<g filter="url(#filter0_d_2_810)">
<rect x="30" width="61.0237" height="61.0237" rx="25" fill="#E8E3FF"/>
<path d="M72.7822 18H55.4216V26.7045H63.9639C64.1101 26.7045 64.2503 26.7626 64.3536 26.8659C64.457 26.9693 64.5151 27.1095 64.5151 27.2557V35.68H73.3334V18.5522C73.3335 18.4797 73.3194 18.408 73.2917 18.341C73.2641 18.274 73.2235 18.2131 73.1723 18.1618C73.1211 18.1105 73.0603 18.0698 72.9934 18.0421C72.9264 18.0143 72.8547 18 72.7822 18V18Z" fill="#8E75FF"/>
<path opacity="0.405" d="M55.4198 18V26.7045H47.2756C47.2208 26.7044 47.1674 26.688 47.122 26.6575C47.0766 26.6269 47.0413 26.5836 47.0206 26.533C46.9999 26.4823 46.9946 26.4267 47.0056 26.3731C47.0165 26.3195 47.0432 26.2704 47.0821 26.2319L55.4198 18ZM64.9838 43.9209C64.9451 43.959 64.8959 43.9848 64.8425 43.995C64.7892 44.0053 64.7339 43.9996 64.6838 43.9786C64.6337 43.9576 64.5908 43.9223 64.5607 43.8771C64.5305 43.8319 64.5144 43.7788 64.5143 43.7244V35.68H73.3325L64.9838 43.92V43.921V43.9209ZM55.4198 26.7045H64.2392C64.3121 26.7046 64.382 26.7336 64.4336 26.7852C64.4851 26.8367 64.5142 26.9066 64.5143 26.9796V35.68H55.972C55.8996 35.68 55.8279 35.6657 55.7611 35.638C55.6942 35.6103 55.6334 35.5697 55.5822 35.5186C55.5311 35.4674 55.4905 35.4066 55.4628 35.3397C55.4351 35.2729 55.4208 35.2012 55.4208 35.1288V26.7045H55.4198Z" fill="#8E75FF"/>
</g>
<defs>
<filter id="filter0_d_2_810" x="0" y="0" width="121.024" height="131.024" filterUnits="userSpaceOnUse" color-interpolation-filters="sRGB">
<feFlood flood-opacity="0" result="BackgroundImageFix"/>
<feColorMatrix in="SourceAlpha" type="matrix" values="0 0 0 0 0 0 0 0 0 0 0 0 0 0 0 0 0 0 127 0" result="hardAlpha"/>
<feOffset dy="40"/>
<feGaussianBlur stdDeviation="15"/>
<feColorMatrix type="matrix" values="0 0 0 0 0.0980392 0 0 0 0 0.0980392 0 0 0 0 0.180392 0 0 0 0.04 0"/>
<feBlend mode="multiply" in2="BackgroundImageFix" result="effect1_dropShadow_2_810"/>
<feBlend mode="normal" in="SourceGraphic" in2="effect1_dropShadow_2_810" result="shape"/>
</filter>
</defs>
</svg>
