<svg width="96" height="32" viewBox="0 0 96 32" fill="none" xmlns="http://www.w3.org/2000/svg">
<rect x="0.339844" y="0.339844" width="95.3203" height="31.3203" rx="0.385156" fill="#252422" stroke="#FFFCF2" stroke-width="0.679688"/>
<g filter="url(#filter0_d_2_814)">
<path d="M22.039 8.08513C22.4 8.08513 22.6899 8.19453 22.9087 8.41333C23.1275 8.63214 23.2369 8.91111 23.2369 9.25026C23.2369 9.57846 23.1275 9.85197 22.9087 10.0708C22.6899 10.2896 22.4 10.399 22.039 10.399C21.6889 10.399 21.399 10.2896 21.1692 10.0708C20.9504 9.85197 20.841 9.57846 20.841 9.25026C20.841 8.92205 20.9504 8.64855 21.1692 8.42974C21.399 8.2 21.6889 8.08513 22.039 8.08513ZM23.4667 19.1785C23.4667 20.7429 22.9908 21.9409 22.039 22.7723C21.0872 23.6038 19.6431 24.1945 17.7067 24.5446L17.4113 23.1333C18.8116 22.8708 19.8619 22.4496 20.5621 21.8697C21.2732 21.2899 21.6287 20.4311 21.6287 19.2933V13.681H18.2154V12.3354H23.4667V19.1785ZM28.0059 17.2585C28.0606 18.1009 28.3013 18.7354 28.7279 19.1621C29.1656 19.5778 29.7126 19.7856 30.369 19.7856C30.7738 19.7856 31.1567 19.7255 31.5177 19.6051C31.8897 19.4738 32.2671 19.2824 32.65 19.0308L33.4377 20.1467C33.0329 20.4858 32.557 20.7484 32.01 20.9344C31.463 21.1203 30.8886 21.2133 30.2869 21.2133C28.9632 21.2133 27.9348 20.8031 27.2018 19.9826C26.4688 19.1511 26.1023 18.0462 26.1023 16.6677C26.1023 15.8034 26.2609 15.0267 26.5782 14.3374C26.8955 13.6373 27.355 13.0903 27.9567 12.6964C28.5584 12.3026 29.2585 12.1056 30.0572 12.1056C31.2059 12.1056 32.1139 12.494 32.7813 13.2708C33.4596 14.0366 33.7987 15.0923 33.7987 16.4379C33.7987 16.7662 33.7823 17.0397 33.7495 17.2585H28.0059ZM30.0736 13.4677C29.4828 13.4677 29.0015 13.681 28.6295 14.1077C28.2575 14.5344 28.0442 15.1689 27.9895 16.0113H32.01C31.9881 15.1908 31.8131 14.5617 31.4849 14.1241C31.1567 13.6865 30.6862 13.4677 30.0736 13.4677ZM42.7359 20.5405C42.4077 20.7484 42.0248 20.9125 41.5872 21.0328C41.1496 21.1532 40.6901 21.2133 40.2087 21.2133C39.2241 21.2133 38.4638 20.9617 37.9277 20.4585C37.3916 19.9443 37.1236 19.2496 37.1236 18.3744V13.681H35.2036V12.3354H37.1236V10.399L38.9615 10.1856V12.3354H41.899L41.6856 13.681H38.9615V18.3579C38.9615 18.8284 39.0819 19.1785 39.3226 19.4082C39.5632 19.627 39.9462 19.7364 40.4713 19.7364C41.0511 19.7364 41.5872 19.5997 42.0795 19.3262L42.7359 20.5405ZM60.4626 8.85641V21H58.8379L58.7067 19.9333C58.4222 20.3491 58.0721 20.6663 57.6564 20.8851C57.2407 21.1039 56.7812 21.2133 56.2779 21.2133C55.1949 21.2133 54.3798 20.8085 53.8328 19.999C53.2858 19.1894 53.0123 18.079 53.0123 16.6677C53.0123 15.7815 53.1491 14.9938 53.4226 14.3046C53.707 13.6154 54.1063 13.0793 54.6205 12.6964C55.1347 12.3026 55.7419 12.1056 56.442 12.1056C57.3282 12.1056 58.0557 12.4229 58.6246 13.0574V8.64308L60.4626 8.85641ZM56.9179 13.5169C56.2834 13.5169 55.7966 13.7795 55.4574 14.3046C55.1292 14.8188 54.9651 15.6065 54.9651 16.6677C54.9651 18.7682 55.5668 19.8185 56.7703 19.8185C57.4923 19.8185 58.1104 19.4027 58.6246 18.5713V14.4851C58.1761 13.8397 57.6072 13.5169 56.9179 13.5169ZM64.0828 17.2585C64.1375 18.1009 64.3782 18.7354 64.8049 19.1621C65.2425 19.5778 65.7895 19.7856 66.4459 19.7856C66.8507 19.7856 67.2336 19.7255 67.5946 19.6051C67.9666 19.4738 68.344 19.2824 68.7269 19.0308L69.5146 20.1467C69.1098 20.4858 68.6339 20.7484 68.0869 20.9344C67.5399 21.1203 66.9656 21.2133 66.3638 21.2133C65.0401 21.2133 64.0117 20.8031 63.2787 19.9826C62.5457 19.1511 62.1792 18.0462 62.1792 16.6677C62.1792 15.8034 62.3379 15.0267 62.6551 14.3374C62.9724 13.6373 63.4319 13.0903 64.0336 12.6964C64.6353 12.3026 65.3355 12.1056 66.1341 12.1056C67.2828 12.1056 68.1909 12.494 68.8582 13.2708C69.5365 14.0366 69.8756 15.0923 69.8756 16.4379C69.8756 16.7662 69.8592 17.0397 69.8264 17.2585H64.0828ZM66.1505 13.4677C65.5597 13.4677 65.0784 13.681 64.7064 14.1077C64.3344 14.5344 64.1211 15.1689 64.0664 16.0113H68.0869C68.065 15.1908 67.89 14.5617 67.5618 14.1241C67.2336 13.6865 66.7632 13.4677 66.1505 13.4677ZM79.1738 12.3354L76.1051 21H73.9718L70.9031 12.3354H72.8887L75.0713 19.4738L77.2867 12.3354H79.1738Z" fill="#FFFCF2"/>
<path d="M45.2403 22.7395L43.7797 22.0831L50.7377 7.67487L52.1818 8.34769L45.2403 22.7395Z" fill="#EB5E28"/>
</g>
<defs>
<filter id="filter0_d_2_814" x="16.755" y="7.34666" width="63.0753" height="18.1826" filterUnits="userSpaceOnUse" color-interpolation-filters="sRGB">
<feFlood flood-opacity="0" result="BackgroundImageFix"/>
<feColorMatrix in="SourceAlpha" type="matrix" values="0 0 0 0 0 0 0 0 0 0 0 0 0 0 0 0 0 0 127 0" result="hardAlpha"/>
<feOffset dy="0.328205"/>
<feGaussianBlur stdDeviation="0.328205"/>
<feColorMatrix type="matrix" values="0 0 0 0 0 0 0 0 0 0 0 0 0 0 0 0 0 0 0.25 0"/>
<feBlend mode="normal" in2="BackgroundImageFix" result="effect1_dropShadow_2_814"/>
<feBlend mode="normal" in="SourceGraphic" in2="effect1_dropShadow_2_814" result="shape"/>
</filter>
</defs>
</svg>
