<svg width="0" height="0" class="hidden">
  <symbol fill="none" xmlns="http://www.w3.org/2000/svg" viewBox="0 0 12 12" id="icon-email">
    <path d="M8.25 9.897C7.56635 10.2931 6.7901 10.5013 6 10.5005M8 6C8 5.46957 7.78929 4.96086 7.41422 4.58579C7.03914 4.21071 6.53043 4 6 4C5.46957 4 4.96086 4.21071 4.58579 4.58579C4.21072 4.96086 4 5.46957 4 6C4 6.53043 4.21072 7.03914 4.58579 7.41421C4.96086 7.78929 5.46957 8 6 8C6.53043 8 7.03914 7.78929 7.41422 7.41421C7.78929 7.03914 8 6.53043 8 6ZM8 6V6.75C8 7.08152 8.1317 7.39946 8.36612 7.63388C8.60054 7.8683 8.91848 8 9.25 8C9.58152 8 9.89946 7.8683 10.1339 7.63388C10.3683 7.39946 10.5 7.08152 10.5 6.75V6C10.5 5.10998 10.2361 4.23996 9.74162 3.49993C9.24715 2.75991 8.54434 2.18314 7.72208 1.84254C6.89981 1.50195 5.99501 1.41283 5.1221 1.58647C4.24918 1.7601 3.44736 2.18868 2.81802 2.81802C2.18869 3.44736 1.7601 4.24918 1.58647 5.12209C1.41283 5.99501 1.50195 6.89981 1.84254 7.72208C2.18314 8.54434 2.75991 9.24715 3.49994 9.74161C4.23996 10.2361 5.10999 10.5 6 10.5L8 6Z" stroke="#F9B171" stroke-linecap="round" stroke-linejoin="round"></path>
  </symbol>
  <symbol fill="none" xmlns="http://www.w3.org/2000/svg" viewBox="0 0 12 12" id="icon-dribble">
    <path fill-rule="evenodd" clip-rule="evenodd" d="M6 0C2.6875 0 0 2.6875 0 6C0 9.3125 2.6875 12 6 12C9.306 12 12 9.3125 12 6C12 2.6875 9.306 0 6 0ZM9.963 2.7655C10.7017 3.66517 11.1105 4.79045 11.1215 5.9545C10.9525 5.922 9.2605 5.577 7.5555 5.792C7.516 5.707 7.4835 5.616 7.4445 5.525C7.33846 5.2747 7.22575 5.02728 7.1065 4.783C8.9935 4.015 9.8525 2.909 9.963 2.7655ZM6 0.8855C7.3015 0.8855 8.4925 1.373 9.397 2.1735C9.306 2.3035 8.5315 3.3385 6.7095 4.0215C5.8695 2.4795 4.9395 1.2165 4.796 1.0215C5.19066 0.929344 5.59472 0.883535 6 0.885V0.8855ZM3.82 1.3665C3.9565 1.549 4.8675 2.818 5.72 4.3275C3.325 4.9655 1.21 4.9525 0.9825 4.9525C1.3145 3.3645 2.3885 2.0435 3.82 1.3665ZM0.872 6.0065V5.8505C1.0935 5.857 3.579 5.8895 6.137 5.1215C6.2865 5.408 6.423 5.7005 6.553 5.9935C6.488 6.013 6.4165 6.0325 6.3515 6.052C3.7095 6.9045 2.3035 9.234 2.1865 9.4295C1.34021 8.49026 0.8719 7.27077 0.872 6.0065ZM6 11.128C4.86101 11.1298 3.75432 10.7495 2.857 10.048C2.948 9.859 3.989 7.8545 6.8785 6.846C6.8915 6.8395 6.8985 6.8395 6.911 6.833C7.6335 8.7005 7.926 10.269 8.0045 10.718C7.386 10.985 6.7095 11.128 6 11.128ZM8.857 10.2495C8.805 9.937 8.5315 8.4405 7.861 6.5985C9.4685 6.345 10.874 6.7615 11.05 6.82C10.8285 8.245 10.0085 9.475 8.857 10.2495Z" fill="#F9B171"></path>
  </symbol>
  <symbol fill="none" xmlns="http://www.w3.org/2000/svg" viewBox="0 0 62 62" id="icon-figma">
    <rect width="61.02" height="61.02" rx="25" fill="#F4EEFB"></rect>
    <path d="M27 43C29.208 43 31 41.208 31 39V35H27C24.792 35 23 36.792 23 39C23 41.208 24.792 43 27 43Z" fill="#0ACF83"></path>
    <path d="M23 31C23 28.792 24.792 27 27 27H31V35H27C24.792 35 23 33.208 23 31Z" fill="#A259FF"></path>
    <path d="M23 23C23 20.792 24.792 19 27 19H31V27H27C24.792 27 23 25.208 23 23Z" fill="#F24E1E"></path>
    <path d="M31 19H35C37.208 19 39 20.792 39 23C39 25.208 37.208 27 35 27H31V19Z" fill="#FF7262"></path>
    <path d="M39 31C39 33.208 37.208 35 35 35C32.792 35 31 33.208 31 31C31 28.792 32.792 27 35 27C37.208 27 39 28.792 39 31Z" fill="#1ABCFE"></path>
  </symbol>
  <symbol fill="none" xmlns="http://www.w3.org/2000/svg" viewBox="0 0 12 12" id="icon-github">
    <path fill-rule="evenodd" clip-rule="evenodd" d="M6 0C2.685 0 0 2.685 0 6C0 8.655 1.7175 10.8975 4.1025 11.6925C4.4025 11.745 4.515 11.565 4.515 11.4075C4.515 11.265 4.5075 10.7925 4.5075 10.29C3 10.5675 2.61 9.9225 2.49 9.585C2.4225 9.4125 2.13 8.88 1.875 8.7375C1.665 8.625 1.365 8.3475 1.8675 8.34C2.34 8.3325 2.6775 8.775 2.79 8.955C3.33 9.8625 4.1925 9.6075 4.5375 9.45C4.59 9.06 4.7475 8.7975 4.92 8.6475C3.585 8.4975 2.19 7.98 2.19 5.685C2.19 5.0325 2.4225 4.4925 2.805 4.0725C2.745 3.9225 2.535 3.3075 2.865 2.4825C2.865 2.4825 3.3675 2.325 4.515 3.0975C4.995 2.9625 5.505 2.895 6.015 2.895C6.525 2.895 7.035 2.9625 7.515 3.0975C8.6625 2.3175 9.165 2.4825 9.165 2.4825C9.495 3.3075 9.285 3.9225 9.225 4.0725C9.6075 4.4925 9.84 5.025 9.84 5.685C9.84 7.9875 8.4375 8.4975 7.1025 8.6475C7.32 8.835 7.5075 9.195 7.5075 9.7575C7.5075 10.56 7.5 11.205 7.5 11.4075C7.5 11.565 7.6125 11.7525 7.9125 11.6925C9.10359 11.2904 10.1386 10.5248 10.8718 9.50368C11.6051 8.48252 11.9996 7.25714 12 6C12 2.685 9.315 0 6 0Z" fill="#F9B171"></path>
  </symbol>
  <symbol fill="none" xmlns="http://www.w3.org/2000/svg" viewBox="0 0 62 62" id="icon-next">
    <rect width="61.02" height="61.02" rx="25" fill="#F4EEFB"></rect>
    <path d="M19.6742 24.4511H27.4072V25.0657H20.3831V29.6916H26.9884V30.3062H20.3831V35.385H27.4878V35.9996H19.6742V24.4511ZM28.1001 24.4511H28.9217L32.5626 29.5298L36.284 24.451L41.3459 17.9999L33.0297 30.0636L37.3151 35.9996H36.4613L32.5626 30.5974L28.6477 35.9996H27.81L32.1276 30.0636L28.1 24.4511H28.1001ZM37.6212 25.0657V24.451H46.4336V25.0657H42.3737V35.9995H41.6649V25.0657H37.6212V25.0657ZM10 24.451H10.8861L23.1044 42.7346L18.0552 35.9995L10.741 25.3245L10.7089 35.9997H10V24.451ZM46.3622 35.1994C46.2173 35.1994 46.1087 35.0873 46.1087 34.9422C46.1087 34.7972 46.2173 34.685 46.3622 34.685C46.5087 34.685 46.6156 34.7971 46.6156 34.9422C46.6156 35.0872 46.5087 35.1994 46.3622 35.1994ZM47.0587 34.5227H47.438C47.4432 34.7281 47.5932 34.8663 47.8139 34.8663C48.0604 34.8663 48.2001 34.7178 48.2001 34.4398V32.6789H48.5863V34.4415C48.5863 34.9422 48.2966 35.2305 47.8173 35.2305C47.3673 35.2305 47.0587 34.9508 47.0587 34.5226V34.5227ZM49.0914 34.5003H49.4742C49.5069 34.7368 49.738 34.8869 50.0708 34.8869C50.3811 34.8869 50.6087 34.7264 50.6087 34.5054C50.6087 34.3156 50.4638 34.2016 50.1345 34.1239L49.8138 34.0463C49.3638 33.9409 49.1587 33.7234 49.1587 33.3574C49.1587 32.9138 49.5207 32.6185 50.0638 32.6185C50.5689 32.6185 50.9379 32.9137 50.9604 33.3332H50.5845C50.5483 33.1037 50.3482 32.9603 50.0586 32.9603C49.7535 32.9603 49.5501 33.1071 49.5501 33.3315C49.5501 33.5092 49.681 33.6112 50.0052 33.6871L50.2793 33.7544C50.7896 33.8736 51 34.0808 51 34.4554C51 34.9318 50.6311 35.2305 50.0415 35.2305C49.4897 35.2305 49.119 34.9456 49.0914 34.5002V34.5003Z" fill="black"></path>
  </symbol>
  <symbol fill="none" xmlns="http://www.w3.org/2000/svg" viewBox="0 0 62 62" id="icon-strapi">
    <rect width="61.02" height="61.02" rx="25" fill="#F4EEFB"></rect>
    <path d="M42.7821 18H25.4215V26.7045H33.9638C34.11 26.7045 34.2501 26.7626 34.3535 26.8659C34.4569 26.9693 34.5149 27.1095 34.515 27.2557V35.68H43.3333V18.5522C43.3334 18.4797 43.3192 18.408 43.2916 18.341C43.264 18.274 43.2234 18.2131 43.1722 18.1618C43.121 18.1105 43.0602 18.0698 42.9932 18.0421C42.9263 18.0143 42.8545 18 42.7821 18V18Z" fill="#8E75FF"></path>
    <path opacity="0.405" d="M25.4198 18V26.7045H17.2756C17.2208 26.7044 17.1674 26.688 17.122 26.6575C17.0766 26.6269 17.0413 26.5836 17.0206 26.533C16.9999 26.4823 16.9946 26.4267 17.0056 26.3731C17.0165 26.3195 17.0432 26.2704 17.0821 26.2319L25.4198 18ZM34.9838 43.9209C34.9451 43.959 34.8959 43.9848 34.8425 43.995C34.7892 44.0053 34.7339 43.9996 34.6838 43.9786C34.6337 43.9576 34.5908 43.9223 34.5607 43.8771C34.5305 43.8319 34.5144 43.7788 34.5143 43.7244V35.68H43.3325L34.9838 43.92V43.921V43.9209ZM25.4198 26.7045H34.2392C34.3121 26.7046 34.382 26.7336 34.4336 26.7852C34.4851 26.8367 34.5142 26.9066 34.5143 26.9796V35.68H25.972C25.8996 35.68 25.8279 35.6657 25.7611 35.638C25.6942 35.6103 25.6334 35.5697 25.5822 35.5186C25.5311 35.4674 25.4905 35.4066 25.4628 35.3397C25.4351 35.2729 25.4208 35.2012 25.4208 35.1288V26.7045H25.4198Z" fill="#8E75FF"></path>
  </symbol>
  <symbol fill="none" xmlns="http://www.w3.org/2000/svg" viewBox="0 0 12 12" id="icon-twitter">
    <path d="M11.8215 2.4685C11.404 2.6535 10.9555 2.7785 10.484 2.835C10.9705 2.5439 11.3345 2.08573 11.508 1.546C11.0509 1.8175 10.5507 2.0086 10.029 2.111C9.6782 1.73643 9.21354 1.48816 8.70717 1.40474C8.2008 1.32131 7.68106 1.4074 7.22863 1.64963C6.7762 1.89186 6.41639 2.27668 6.20508 2.74435C5.99377 3.21202 5.94277 3.73638 6.06001 4.236C5.13385 4.1895 4.22782 3.94877 3.40072 3.52945C2.57362 3.11013 1.84393 2.52158 1.25901 1.802C1.05901 2.147 0.944006 2.547 0.944006 2.973C0.943783 3.3565 1.03822 3.73412 1.21895 4.07237C1.39967 4.41061 1.66109 4.69902 1.98001 4.912C1.61014 4.90023 1.24844 4.80029 0.925006 4.6205V4.6505C0.924969 5.18837 1.11102 5.70969 1.4516 6.126C1.79217 6.54231 2.26629 6.82796 2.79351 6.9345C2.4504 7.02736 2.09067 7.04104 1.74151 6.9745C1.89025 7.43731 2.18 7.84201 2.57019 8.13196C2.96038 8.42191 3.43146 8.58259 3.91751 8.5915C3.09242 9.23921 2.07345 9.59054 1.02451 9.589C0.838696 9.58905 0.653044 9.5782 0.468506 9.5565C1.53324 10.2411 2.77268 10.6044 4.03851 10.603C8.32351 10.603 10.666 7.054 10.666 3.976C10.666 3.876 10.6635 3.775 10.659 3.675C11.1147 3.34549 11.508 2.93745 11.8205 2.47L11.8215 2.4685Z" fill="#F9B171"></path>
  </symbol>
  <symbol fill="none" xmlns="http://www.w3.org/2000/svg" viewBox="0 0 96 32" id="logo">
    <rect x="0.339844" y="0.339844" width="95.3203" height="31.3203" rx="0.385156" fill="#252422" stroke="#FFFCF2" stroke-width="0.679688"></rect>
    <g filter="url(#filter0_d_2_814)">
      <path d="M22.039 8.08513C22.4 8.08513 22.6899 8.19453 22.9087 8.41333C23.1275 8.63214 23.2369 8.91111 23.2369 9.25026C23.2369 9.57846 23.1275 9.85197 22.9087 10.0708C22.6899 10.2896 22.4 10.399 22.039 10.399C21.6889 10.399 21.399 10.2896 21.1692 10.0708C20.9504 9.85197 20.841 9.57846 20.841 9.25026C20.841 8.92205 20.9504 8.64855 21.1692 8.42974C21.399 8.2 21.6889 8.08513 22.039 8.08513ZM23.4667 19.1785C23.4667 20.7429 22.9908 21.9409 22.039 22.7723C21.0872 23.6038 19.6431 24.1945 17.7067 24.5446L17.4113 23.1333C18.8116 22.8708 19.8619 22.4496 20.5621 21.8697C21.2732 21.2899 21.6287 20.4311 21.6287 19.2933V13.681H18.2154V12.3354H23.4667V19.1785ZM28.0059 17.2585C28.0606 18.1009 28.3013 18.7354 28.7279 19.1621C29.1656 19.5778 29.7126 19.7856 30.369 19.7856C30.7738 19.7856 31.1567 19.7255 31.5177 19.6051C31.8897 19.4738 32.2671 19.2824 32.65 19.0308L33.4377 20.1467C33.0329 20.4858 32.557 20.7484 32.01 20.9344C31.463 21.1203 30.8886 21.2133 30.2869 21.2133C28.9632 21.2133 27.9348 20.8031 27.2018 19.9826C26.4688 19.1511 26.1023 18.0462 26.1023 16.6677C26.1023 15.8034 26.2609 15.0267 26.5782 14.3374C26.8955 13.6373 27.355 13.0903 27.9567 12.6964C28.5584 12.3026 29.2585 12.1056 30.0572 12.1056C31.2059 12.1056 32.1139 12.494 32.7813 13.2708C33.4596 14.0366 33.7987 15.0923 33.7987 16.4379C33.7987 16.7662 33.7823 17.0397 33.7495 17.2585H28.0059ZM30.0736 13.4677C29.4828 13.4677 29.0015 13.681 28.6295 14.1077C28.2575 14.5344 28.0442 15.1689 27.9895 16.0113H32.01C31.9881 15.1908 31.8131 14.5617 31.4849 14.1241C31.1567 13.6865 30.6862 13.4677 30.0736 13.4677ZM42.7359 20.5405C42.4077 20.7484 42.0248 20.9125 41.5872 21.0328C41.1496 21.1532 40.6901 21.2133 40.2087 21.2133C39.2241 21.2133 38.4638 20.9617 37.9277 20.4585C37.3916 19.9443 37.1236 19.2496 37.1236 18.3744V13.681H35.2036V12.3354H37.1236V10.399L38.9615 10.1856V12.3354H41.899L41.6856 13.681H38.9615V18.3579C38.9615 18.8284 39.0819 19.1785 39.3226 19.4082C39.5632 19.627 39.9462 19.7364 40.4713 19.7364C41.0511 19.7364 41.5872 19.5997 42.0795 19.3262L42.7359 20.5405ZM60.4626 8.85641V21H58.8379L58.7067 19.9333C58.4222 20.3491 58.0721 20.6663 57.6564 20.8851C57.2407 21.1039 56.7812 21.2133 56.2779 21.2133C55.1949 21.2133 54.3798 20.8085 53.8328 19.999C53.2858 19.1894 53.0123 18.079 53.0123 16.6677C53.0123 15.7815 53.1491 14.9938 53.4226 14.3046C53.707 13.6154 54.1063 13.0793 54.6205 12.6964C55.1347 12.3026 55.7419 12.1056 56.442 12.1056C57.3282 12.1056 58.0557 12.4229 58.6246 13.0574V8.64308L60.4626 8.85641ZM56.9179 13.5169C56.2834 13.5169 55.7966 13.7795 55.4574 14.3046C55.1292 14.8188 54.9651 15.6065 54.9651 16.6677C54.9651 18.7682 55.5668 19.8185 56.7703 19.8185C57.4923 19.8185 58.1104 19.4027 58.6246 18.5713V14.4851C58.1761 13.8397 57.6072 13.5169 56.9179 13.5169ZM64.0828 17.2585C64.1375 18.1009 64.3782 18.7354 64.8049 19.1621C65.2425 19.5778 65.7895 19.7856 66.4459 19.7856C66.8507 19.7856 67.2336 19.7255 67.5946 19.6051C67.9666 19.4738 68.344 19.2824 68.7269 19.0308L69.5146 20.1467C69.1098 20.4858 68.6339 20.7484 68.0869 20.9344C67.5399 21.1203 66.9656 21.2133 66.3638 21.2133C65.0401 21.2133 64.0117 20.8031 63.2787 19.9826C62.5457 19.1511 62.1792 18.0462 62.1792 16.6677C62.1792 15.8034 62.3379 15.0267 62.6551 14.3374C62.9724 13.6373 63.4319 13.0903 64.0336 12.6964C64.6353 12.3026 65.3355 12.1056 66.1341 12.1056C67.2828 12.1056 68.1909 12.494 68.8582 13.2708C69.5365 14.0366 69.8756 15.0923 69.8756 16.4379C69.8756 16.7662 69.8592 17.0397 69.8264 17.2585H64.0828ZM66.1505 13.4677C65.5597 13.4677 65.0784 13.681 64.7064 14.1077C64.3344 14.5344 64.1211 15.1689 64.0664 16.0113H68.0869C68.065 15.1908 67.89 14.5617 67.5618 14.1241C67.2336 13.6865 66.7632 13.4677 66.1505 13.4677ZM79.1738 12.3354L76.1051 21H73.9718L70.9031 12.3354H72.8887L75.0713 19.4738L77.2867 12.3354H79.1738Z" fill="#FFFCF2"></path>
      <path d="M45.2403 22.7395L43.7797 22.0831L50.7377 7.67487L52.1818 8.34769L45.2403 22.7395Z" fill="#EB5E28"></path>
    </g>
    <defs>
      <filter id="filter0_d_2_814" x="16.755" y="7.34666" width="63.0753" height="18.1826" filterUnits="userSpaceOnUse" color-interpolation-filters="sRGB">
        <feFlood flood-opacity="0" result="BackgroundImageFix"></feFlood>
        <feColorMatrix in="SourceAlpha" type="matrix" values="0 0 0 0 0 0 0 0 0 0 0 0 0 0 0 0 0 0 127 0" result="hardAlpha"></feColorMatrix>
        <feOffset dy="0.328205"></feOffset>
        <feGaussianBlur stdDeviation="0.328205"></feGaussianBlur>
        <feColorMatrix type="matrix" values="0 0 0 0 0 0 0 0 0 0 0 0 0 0 0 0 0 0 0.25 0"></feColorMatrix>
        <feBlend mode="normal" in2="BackgroundImageFix" result="effect1_dropShadow_2_814"></feBlend>
        <feBlend mode="normal" in="SourceGraphic" in2="effect1_dropShadow_2_814" result="shape"></feBlend>
      </filter>
    </defs>
  </symbol>
  <symbol fill="none" xmlns="http://www.w3.org/2000/svg" viewBox="0 0 703 587" id="header-image-bg">
    <mask id="path-1-inside-1_2_781" fill="white">
      <path d="M613.647 586.582C658.65 536.2 688.182 473.916 698.707 407.186C709.233 340.456 700.305 272.106 672.994 210.317C645.683 148.529 601.145 95.9193 544.71 58.786C488.276 21.6526 422.336 1.56837 354.784 0.937222C287.232 0.306073 220.928 19.1547 163.81 55.2272C106.692 91.2996 61.1783 143.068 32.7173 204.335C4.25635 265.602 -5.94653 333.773 3.33002 400.689C12.6066 467.604 40.9695 530.429 85.024 581.643L351.5 352.422L613.647 586.582Z"></path>
    </mask>
    <path d="M613.647 586.582C658.65 536.2 688.182 473.916 698.707 407.186C709.233 340.456 700.305 272.106 672.994 210.317C645.683 148.529 601.145 95.9193 544.71 58.786C488.276 21.6526 422.336 1.56837 354.784 0.937222C287.232 0.306073 220.928 19.1547 163.81 55.2272C106.692 91.2996 61.1783 143.068 32.7173 204.335C4.25635 265.602 -5.94653 333.773 3.33002 400.689C12.6066 467.604 40.9695 530.429 85.024 581.643L351.5 352.422L613.647 586.582Z" fill="#252422"></path>
    <path d="M613.647 586.582L556.978 650.024L620.42 706.693L677.089 643.251L613.647 586.582ZM85.024 581.643L20.5343 637.117L76.0081 701.607L140.498 646.133L85.024 581.643ZM351.5 352.422L408.169 288.98L352.557 239.305L296.026 287.932L351.5 352.422ZM677.089 643.251C732.984 580.676 769.662 503.319 782.735 420.439L614.68 393.932C606.702 444.513 584.317 491.724 550.205 529.913L677.089 643.251ZM782.735 420.439C795.807 337.56 784.719 252.668 750.799 175.927L595.19 244.708C615.891 291.543 622.658 343.351 614.68 393.932L782.735 420.439ZM750.799 175.927C716.878 99.1847 661.561 33.8434 591.469 -12.2766L497.952 129.848C540.728 157.995 574.488 197.873 595.19 244.708L750.799 175.927ZM591.469 -12.2766C521.377 -58.3966 439.479 -83.3414 355.579 -84.1252L353.989 85.9997C405.193 86.4781 455.175 101.702 497.952 129.848L591.469 -12.2766ZM355.579 -84.1252C271.678 -84.9091 189.329 -61.4989 118.387 -16.6966L209.233 127.151C252.528 99.8084 302.785 85.5213 353.989 85.9997L355.579 -84.1252ZM118.387 -16.6966C47.446 28.1057 -9.08215 92.402 -44.431 168.497L109.866 240.173C131.439 193.733 165.938 154.494 209.233 127.151L118.387 -16.6966ZM-44.431 168.497C-79.7798 244.591 -92.4519 329.26 -80.9304 412.37L87.5904 389.008C80.5588 338.287 88.2925 286.613 109.866 240.173L-44.431 168.497ZM-80.9304 412.37C-69.4088 495.479 -34.1818 573.508 20.5343 637.117L149.514 526.17C116.121 487.35 94.6219 439.729 87.5904 389.008L-80.9304 412.37ZM140.498 646.133L406.974 416.911L296.026 287.932L29.5502 517.154L140.498 646.133ZM294.831 415.864L556.978 650.024L670.316 523.141L408.169 288.98L294.831 415.864Z" fill="#FBC89C" mask="url(#path-1-inside-1_2_781)"></path>
  </symbol>
</svg>