<svg width="703" height="587" viewBox="0 0 703 587" fill="none" xmlns="http://www.w3.org/2000/svg">
<mask id="path-1-inside-1_2_781" fill="white">
<path d="M613.647 586.582C658.65 536.2 688.182 473.916 698.707 407.186C709.233 340.456 700.305 272.106 672.994 210.317C645.683 148.529 601.145 95.9193 544.71 58.786C488.276 21.6526 422.336 1.56837 354.784 0.937222C287.232 0.306073 220.928 19.1547 163.81 55.2272C106.692 91.2996 61.1783 143.068 32.7173 204.335C4.25635 265.602 -5.94653 333.773 3.33002 400.689C12.6066 467.604 40.9695 530.429 85.024 581.643L351.5 352.422L613.647 586.582Z"/>
</mask>
<path d="M613.647 586.582C658.65 536.2 688.182 473.916 698.707 407.186C709.233 340.456 700.305 272.106 672.994 210.317C645.683 148.529 601.145 95.9193 544.71 58.786C488.276 21.6526 422.336 1.56837 354.784 0.937222C287.232 0.306073 220.928 19.1547 163.81 55.2272C106.692 91.2996 61.1783 143.068 32.7173 204.335C4.25635 265.602 -5.94653 333.773 3.33002 400.689C12.6066 467.604 40.9695 530.429 85.024 581.643L351.5 352.422L613.647 586.582Z" fill="#252422"/>
<path d="M613.647 586.582L556.978 650.024L620.42 706.693L677.089 643.251L613.647 586.582ZM85.024 581.643L20.5343 637.117L76.0081 701.607L140.498 646.133L85.024 581.643ZM351.5 352.422L408.169 288.98L352.557 239.305L296.026 287.932L351.5 352.422ZM677.089 643.251C732.984 580.676 769.662 503.319 782.735 420.439L614.68 393.932C606.702 444.513 584.317 491.724 550.205 529.913L677.089 643.251ZM782.735 420.439C795.807 337.56 784.719 252.668 750.799 175.927L595.19 244.708C615.891 291.543 622.658 343.351 614.68 393.932L782.735 420.439ZM750.799 175.927C716.878 99.1847 661.561 33.8434 591.469 -12.2766L497.952 129.848C540.728 157.995 574.488 197.873 595.19 244.708L750.799 175.927ZM591.469 -12.2766C521.377 -58.3966 439.479 -83.3414 355.579 -84.1252L353.989 85.9997C405.193 86.4781 455.175 101.702 497.952 129.848L591.469 -12.2766ZM355.579 -84.1252C271.678 -84.9091 189.329 -61.4989 118.387 -16.6966L209.233 127.151C252.528 99.8084 302.785 85.5213 353.989 85.9997L355.579 -84.1252ZM118.387 -16.6966C47.446 28.1057 -9.08215 92.402 -44.431 168.497L109.866 240.173C131.439 193.733 165.938 154.494 209.233 127.151L118.387 -16.6966ZM-44.431 168.497C-79.7798 244.591 -92.4519 329.26 -80.9304 412.37L87.5904 389.008C80.5588 338.287 88.2925 286.613 109.866 240.173L-44.431 168.497ZM-80.9304 412.37C-69.4088 495.479 -34.1818 573.508 20.5343 637.117L149.514 526.17C116.121 487.35 94.6219 439.729 87.5904 389.008L-80.9304 412.37ZM140.498 646.133L406.974 416.911L296.026 287.932L29.5502 517.154L140.498 646.133ZM294.831 415.864L556.978 650.024L670.316 523.141L408.169 288.98L294.831 415.864Z" fill="#FBC89C" mask="url(#path-1-inside-1_2_781)"/>
</svg>
