<svg width="12" height="12" viewBox="0 0 12 12" fill="none" xmlns="http://www.w3.org/2000/svg">
<path d="M11.8215 2.4685C11.404 2.6535 10.9555 2.7785 10.484 2.835C10.9705 2.5439 11.3345 2.08573 11.508 1.546C11.0509 1.8175 10.5507 2.0086 10.029 2.111C9.6782 1.73643 9.21354 1.48816 8.70717 1.40474C8.2008 1.32131 7.68106 1.4074 7.22863 1.64963C6.7762 1.89186 6.41639 2.27668 6.20508 2.74435C5.99377 3.21202 5.94277 3.73638 6.06001 4.236C5.13385 4.1895 4.22782 3.94877 3.40072 3.52945C2.57362 3.11013 1.84393 2.52158 1.25901 1.802C1.05901 2.147 0.944006 2.547 0.944006 2.973C0.943783 3.3565 1.03822 3.73412 1.21895 4.07237C1.39967 4.41061 1.66109 4.69902 1.98001 4.912C1.61014 4.90023 1.24844 4.80029 0.925006 4.6205V4.6505C0.924969 5.18837 1.11102 5.70969 1.4516 6.126C1.79217 6.54231 2.26629 6.82796 2.79351 6.9345C2.4504 7.02736 2.09067 7.04104 1.74151 6.9745C1.89025 7.43731 2.18 7.84201 2.57019 8.13196C2.96038 8.42191 3.43146 8.58259 3.91751 8.5915C3.09242 9.23921 2.07345 9.59054 1.02451 9.589C0.838696 9.58905 0.653044 9.5782 0.468506 9.5565C1.53324 10.2411 2.77268 10.6044 4.03851 10.603C8.32351 10.603 10.666 7.054 10.666 3.976C10.666 3.876 10.6635 3.775 10.659 3.675C11.1147 3.34549 11.508 2.93745 11.8205 2.47L11.8215 2.4685Z" fill="#F9B171"/>
</svg>
