<svg width="12" height="12" viewBox="0 0 12 12" fill="none" xmlns="http://www.w3.org/2000/svg">
<path fill-rule="evenodd" clip-rule="evenodd" d="M6 0C2.6875 0 0 2.6875 0 6C0 9.3125 2.6875 12 6 12C9.306 12 12 9.3125 12 6C12 2.6875 9.306 0 6 0ZM9.963 2.7655C10.7017 3.66517 11.1105 4.79045 11.1215 5.9545C10.9525 5.922 9.2605 5.577 7.5555 5.792C7.516 5.707 7.4835 5.616 7.4445 5.525C7.33846 5.2747 7.22575 5.02728 7.1065 4.783C8.9935 4.015 9.8525 2.909 9.963 2.7655ZM6 0.8855C7.3015 0.8855 8.4925 1.373 9.397 2.1735C9.306 2.3035 8.5315 3.3385 6.7095 4.0215C5.8695 2.4795 4.9395 1.2165 4.796 1.0215C5.19066 0.929344 5.59472 0.883535 6 0.885V0.8855ZM3.82 1.3665C3.9565 1.549 4.8675 2.818 5.72 4.3275C3.325 4.9655 1.21 4.9525 0.9825 4.9525C1.3145 3.3645 2.3885 2.0435 3.82 1.3665ZM0.872 6.0065V5.8505C1.0935 5.857 3.579 5.8895 6.137 5.1215C6.2865 5.408 6.423 5.7005 6.553 5.9935C6.488 6.013 6.4165 6.0325 6.3515 6.052C3.7095 6.9045 2.3035 9.234 2.1865 9.4295C1.34021 8.49026 0.8719 7.27077 0.872 6.0065ZM6 11.128C4.86101 11.1298 3.75432 10.7495 2.857 10.048C2.948 9.859 3.989 7.8545 6.8785 6.846C6.8915 6.8395 6.8985 6.8395 6.911 6.833C7.6335 8.7005 7.926 10.269 8.0045 10.718C7.386 10.985 6.7095 11.128 6 11.128ZM8.857 10.2495C8.805 9.937 8.5315 8.4405 7.861 6.5985C9.4685 6.345 10.874 6.7615 11.05 6.82C10.8285 8.245 10.0085 9.475 8.857 10.2495Z" fill="#F9B171"/>
</svg>
