<svg width="41" height="25" viewBox="0 0 41 25" fill="none" xmlns="http://www.w3.org/2000/svg">
<path d="M9.67424 6.45105H17.4072V7.06573H10.3831V11.6916H16.9884V12.3062H10.3831V17.385H17.4878V17.9996H9.67424V6.45105ZM18.1001 6.45105H18.9217L22.5626 11.5298L26.284 6.45097L31.3459 -0.00012207L23.0297 12.0636L27.3151 17.9996H26.4613L22.5626 12.5974L18.6477 17.9996H17.81L22.1276 12.0636L18.1 6.45105H18.1001ZM27.6212 7.06573V6.45097H36.4336V7.06565H32.3737V17.9995H31.6649V7.06573H27.6212ZM0 6.45097H0.886064L13.1044 24.7346L8.05522 17.9995L0.741043 7.32446L0.708852 17.9997H0V6.45097ZM36.3622 17.1994C36.2173 17.1994 36.1087 17.0873 36.1087 16.9422C36.1087 16.7972 36.2173 16.685 36.3622 16.685C36.5087 16.685 36.6156 16.7971 36.6156 16.9422C36.6156 17.0872 36.5087 17.1994 36.3622 17.1994ZM37.0587 16.5227H37.438C37.4432 16.7281 37.5932 16.8663 37.8139 16.8663C38.0604 16.8663 38.2001 16.7178 38.2001 16.4398V14.6789H38.5863V16.4415C38.5863 16.9422 38.2966 17.2305 37.8173 17.2305C37.3673 17.2305 37.0587 16.9508 37.0587 16.5226V16.5227ZM39.0914 16.5003H39.4742C39.5069 16.7368 39.738 16.8869 40.0708 16.8869C40.3811 16.8869 40.6087 16.7264 40.6087 16.5054C40.6087 16.3156 40.4638 16.2016 40.1345 16.1239L39.8138 16.0463C39.3638 15.9409 39.1587 15.7234 39.1587 15.3574C39.1587 14.9138 39.5207 14.6185 40.0638 14.6185C40.5689 14.6185 40.9379 14.9137 40.9604 15.3332H40.5845C40.5483 15.1037 40.3482 14.9603 40.0586 14.9603C39.7535 14.9603 39.5501 15.1071 39.5501 15.3315C39.5501 15.5092 39.681 15.6112 40.0052 15.6871L40.2793 15.7544C40.7896 15.8736 41 16.0808 41 16.4554C41 16.9318 40.6311 17.2305 40.0415 17.2305C39.4897 17.2305 39.119 16.9456 39.0914 16.5002V16.5003Z" fill="black"/>
</svg>
