<svg width="27" height="26" viewBox="0 0 27 26" fill="none" xmlns="http://www.w3.org/2000/svg">
<path d="M25.7821 0H8.42151V8.70447H16.9638C17.11 8.7045 17.2501 8.76258 17.3535 8.86594C17.4569 8.9693 17.5149 9.10949 17.515 9.25566V17.68H26.3333V0.55222C26.3334 0.47975 26.3192 0.407965 26.2916 0.340972C26.264 0.27398 26.2234 0.213096 26.1722 0.161804C26.121 0.110512 26.0602 0.0698194 25.9932 0.0420552C25.9263 0.0142909 25.8545 -1.26975e-07 25.7821 0V0Z" fill="#8E75FF"/>
<path opacity="0.405" d="M8.41976 0V8.70447H0.275557C0.220848 8.70436 0.167405 8.68801 0.122009 8.65747C0.0766132 8.62694 0.0413116 8.5836 0.020584 8.53297C-0.000143629 8.48234 -0.00536289 8.4267 0.00558855 8.37309C0.01654 8.31949 0.0431684 8.27035 0.0820947 8.23191L8.41976 0ZM17.9838 25.9209C17.9451 25.959 17.8959 25.9848 17.8425 25.995C17.7892 26.0053 17.7339 25.9996 17.6838 25.9786C17.6337 25.9576 17.5908 25.9223 17.5607 25.8771C17.5305 25.8319 17.5144 25.7788 17.5143 25.7244V17.68H26.3325L17.9838 25.92V25.921V25.9209ZM8.41976 8.70447H17.2392C17.3121 8.70458 17.382 8.7336 17.4336 8.78516C17.4851 8.83673 17.5142 8.90663 17.5143 8.97955V17.68H8.97198C8.8996 17.68 8.82793 17.6657 8.76105 17.638C8.69418 17.6103 8.63342 17.5697 8.58224 17.5186C8.53105 17.4674 8.49045 17.4066 8.46275 17.3397C8.43505 17.2729 8.4208 17.2012 8.4208 17.1288V8.70447H8.41976Z" fill="#8E75FF"/>
</svg>
