<svg width="0" height="0" class="hidden">
  <symbol fill="none" xmlns="http://www.w3.org/2000/svg" viewBox="0 0 41 25" id="icon-next">
    <path d="M9.67424 6.45105H17.4072V7.06573H10.3831V11.6916H16.9884V12.3062H10.3831V17.385H17.4878V17.9996H9.67424V6.45105ZM18.1001 6.45105H18.9217L22.5626 11.5298L26.284 6.45097L31.3459 -0.00012207L23.0297 12.0636L27.3151 17.9996H26.4613L22.5626 12.5974L18.6477 17.9996H17.81L22.1276 12.0636L18.1 6.45105H18.1001ZM27.6212 7.06573V6.45097H36.4336V7.06565H32.3737V17.9995H31.6649V7.06573H27.6212ZM0 6.45097H0.886064L13.1044 24.7346L8.05522 17.9995L0.741043 7.32446L0.708852 17.9997H0V6.45097ZM36.3622 17.1994C36.2173 17.1994 36.1087 17.0873 36.1087 16.9422C36.1087 16.7972 36.2173 16.685 36.3622 16.685C36.5087 16.685 36.6156 16.7971 36.6156 16.9422C36.6156 17.0872 36.5087 17.1994 36.3622 17.1994ZM37.0587 16.5227H37.438C37.4432 16.7281 37.5932 16.8663 37.8139 16.8663C38.0604 16.8663 38.2001 16.7178 38.2001 16.4398V14.6789H38.5863V16.4415C38.5863 16.9422 38.2966 17.2305 37.8173 17.2305C37.3673 17.2305 37.0587 16.9508 37.0587 16.5226V16.5227ZM39.0914 16.5003H39.4742C39.5069 16.7368 39.738 16.8869 40.0708 16.8869C40.3811 16.8869 40.6087 16.7264 40.6087 16.5054C40.6087 16.3156 40.4638 16.2016 40.1345 16.1239L39.8138 16.0463C39.3638 15.9409 39.1587 15.7234 39.1587 15.3574C39.1587 14.9138 39.5207 14.6185 40.0638 14.6185C40.5689 14.6185 40.9379 14.9137 40.9604 15.3332H40.5845C40.5483 15.1037 40.3482 14.9603 40.0586 14.9603C39.7535 14.9603 39.5501 15.1071 39.5501 15.3315C39.5501 15.5092 39.681 15.6112 40.0052 15.6871L40.2793 15.7544C40.7896 15.8736 41 16.0808 41 16.4554C41 16.9318 40.6311 17.2305 40.0415 17.2305C39.4897 17.2305 39.119 16.9456 39.0914 16.5002V16.5003Z" fill="black"></path>
  </symbol>
  <symbol fill="none" xmlns="http://www.w3.org/2000/svg" viewBox="0 0 16 24" id="icon-figma">
    <path d="M4 24C6.208 24 8 22.208 8 20V16H4C1.792 16 0 17.792 0 20C0 22.208 1.792 24 4 24Z" fill="#0ACF83"></path>
    <path d="M0 12C0 9.792 1.792 8 4 8H8V16H4C1.792 16 0 14.208 0 12Z" fill="#A259FF"></path>
    <path d="M0 4C0 1.792 1.792 0 4 0H8V8H4C1.792 8 0 6.208 0 4Z" fill="#F24E1E"></path>
    <path d="M8 0H12C14.208 0 16 1.792 16 4C16 6.208 14.208 8 12 8H8V0Z" fill="#FF7262"></path>
    <path d="M16 12C16 14.208 14.208 16 12 16C9.792 16 8 14.208 8 12C8 9.792 9.792 8 12 8C14.208 8 16 9.792 16 12Z" fill="#1ABCFE"></path>
  </symbol>
  <symbol fill="" xmlns="http://www.w3.org/2000/svg" viewBox="0 0 12 12" id="icon-github">
    <path fill-rule="evenodd" clip-rule="evenodd" d="M6 0C2.685 0 0 2.685 0 6C0 8.655 1.7175 10.8975 4.1025 11.6925C4.4025 11.745 4.515 11.565 4.515 11.4075C4.515 11.265 4.5075 10.7925 4.5075 10.29C3 10.5675 2.61 9.9225 2.49 9.585C2.4225 9.4125 2.13 8.88 1.875 8.7375C1.665 8.625 1.365 8.3475 1.8675 8.34C2.34 8.3325 2.6775 8.775 2.79 8.955C3.33 9.8625 4.1925 9.6075 4.5375 9.45C4.59 9.06 4.7475 8.7975 4.92 8.6475C3.585 8.4975 2.19 7.98 2.19 5.685C2.19 5.0325 2.4225 4.4925 2.805 4.0725C2.745 3.9225 2.535 3.3075 2.865 2.4825C2.865 2.4825 3.3675 2.325 4.515 3.0975C4.995 2.9625 5.505 2.895 6.015 2.895C6.525 2.895 7.035 2.9625 7.515 3.0975C8.6625 2.3175 9.165 2.4825 9.165 2.4825C9.495 3.3075 9.285 3.9225 9.225 4.0725C9.6075 4.4925 9.84 5.025 9.84 5.685C9.84 7.9875 8.4375 8.4975 7.1025 8.6475C7.32 8.835 7.5075 9.195 7.5075 9.7575C7.5075 10.56 7.5 11.205 7.5 11.4075C7.5 11.565 7.6125 11.7525 7.9125 11.6925C9.10359 11.2904 10.1386 10.5248 10.8718 9.50368C11.6051 8.48252 11.9996 7.25714 12 6C12 2.685 9.315 0 6 0Z" fill=""></path>
  </symbol>
  <symbol fill="none" xmlns="http://www.w3.org/2000/svg" viewBox="0 0 27 26" id="icon-strapi">
    <path d="M25.7821 0H8.42151V8.70447H16.9638C17.11 8.7045 17.2501 8.76258 17.3535 8.86594C17.4569 8.9693 17.5149 9.10949 17.515 9.25566V17.68H26.3333V0.55222C26.3334 0.47975 26.3192 0.407965 26.2916 0.340972C26.264 0.27398 26.2234 0.213096 26.1722 0.161804C26.121 0.110512 26.0602 0.0698194 25.9932 0.0420552C25.9263 0.0142909 25.8545 -1.26975e-07 25.7821 0V0Z" fill="#8E75FF"></path>
    <path opacity="0.405" d="M8.41976 0V8.70447H0.275557C0.220848 8.70436 0.167405 8.68801 0.122009 8.65747C0.0766132 8.62694 0.0413116 8.5836 0.020584 8.53297C-0.000143629 8.48234 -0.00536289 8.4267 0.00558855 8.37309C0.01654 8.31949 0.0431684 8.27035 0.0820947 8.23191L8.41976 0ZM17.9838 25.9209C17.9451 25.959 17.8959 25.9848 17.8425 25.995C17.7892 26.0053 17.7339 25.9996 17.6838 25.9786C17.6337 25.9576 17.5908 25.9223 17.5607 25.8771C17.5305 25.8319 17.5144 25.7788 17.5143 25.7244V17.68H26.3325L17.9838 25.92V25.921V25.9209ZM8.41976 8.70447H17.2392C17.3121 8.70458 17.382 8.7336 17.4336 8.78516C17.4851 8.83673 17.5142 8.90663 17.5143 8.97955V17.68H8.97198C8.8996 17.68 8.82793 17.6657 8.76105 17.638C8.69418 17.6103 8.63342 17.5697 8.58224 17.5186C8.53105 17.4674 8.49045 17.4066 8.46275 17.3397C8.43505 17.2729 8.4208 17.2012 8.4208 17.1288V8.70447H8.41976Z" fill="#8E75FF"></path>
  </symbol>
  <symbol fill="" xmlns="http://www.w3.org/2000/svg" viewBox="0 0 12 12" id="icon-twitter">
    <path d="M11.8215 2.4685C11.404 2.6535 10.9555 2.7785 10.484 2.835C10.9705 2.5439 11.3345 2.08573 11.508 1.546C11.0509 1.8175 10.5507 2.0086 10.029 2.111C9.6782 1.73643 9.21354 1.48816 8.70717 1.40474C8.2008 1.32131 7.68106 1.4074 7.22863 1.64963C6.7762 1.89186 6.41639 2.27668 6.20508 2.74435C5.99377 3.21202 5.94277 3.73638 6.06001 4.236C5.13385 4.1895 4.22782 3.94877 3.40072 3.52945C2.57362 3.11013 1.84393 2.52158 1.25901 1.802C1.05901 2.147 0.944006 2.547 0.944006 2.973C0.943783 3.3565 1.03822 3.73412 1.21895 4.07237C1.39967 4.41061 1.66109 4.69902 1.98001 4.912C1.61014 4.90023 1.24844 4.80029 0.925006 4.6205V4.6505C0.924969 5.18837 1.11102 5.70969 1.4516 6.126C1.79217 6.54231 2.26629 6.82796 2.79351 6.9345C2.4504 7.02736 2.09067 7.04104 1.74151 6.9745C1.89025 7.43731 2.18 7.84201 2.57019 8.13196C2.96038 8.42191 3.43146 8.58259 3.91751 8.5915C3.09242 9.23921 2.07345 9.59054 1.02451 9.589C0.838696 9.58905 0.653044 9.5782 0.468506 9.5565C1.53324 10.2411 2.77268 10.6044 4.03851 10.603C8.32351 10.603 10.666 7.054 10.666 3.976C10.666 3.876 10.6635 3.775 10.659 3.675C11.1147 3.34549 11.508 2.93745 11.8205 2.47L11.8215 2.4685Z" fill=""></path>
  </symbol>
  <symbol fill="none" xmlns="http://www.w3.org/2000/svg" viewBox="0 0 96 32" id="logo">
    <rect x="0.339844" y="0.339844" width="95.3203" height="31.3203" rx="0.385156" fill="#252422" stroke="#FFFCF2" stroke-width="0.679688"></rect>
    <g filter="url(#filter0_d_2_814)">
      <path d="M22.039 8.08513C22.4 8.08513 22.6899 8.19453 22.9087 8.41333C23.1275 8.63214 23.2369 8.91111 23.2369 9.25026C23.2369 9.57846 23.1275 9.85197 22.9087 10.0708C22.6899 10.2896 22.4 10.399 22.039 10.399C21.6889 10.399 21.399 10.2896 21.1692 10.0708C20.9504 9.85197 20.841 9.57846 20.841 9.25026C20.841 8.92205 20.9504 8.64855 21.1692 8.42974C21.399 8.2 21.6889 8.08513 22.039 8.08513ZM23.4667 19.1785C23.4667 20.7429 22.9908 21.9409 22.039 22.7723C21.0872 23.6038 19.6431 24.1945 17.7067 24.5446L17.4113 23.1333C18.8116 22.8708 19.8619 22.4496 20.5621 21.8697C21.2732 21.2899 21.6287 20.4311 21.6287 19.2933V13.681H18.2154V12.3354H23.4667V19.1785ZM28.0059 17.2585C28.0606 18.1009 28.3013 18.7354 28.7279 19.1621C29.1656 19.5778 29.7126 19.7856 30.369 19.7856C30.7738 19.7856 31.1567 19.7255 31.5177 19.6051C31.8897 19.4738 32.2671 19.2824 32.65 19.0308L33.4377 20.1467C33.0329 20.4858 32.557 20.7484 32.01 20.9344C31.463 21.1203 30.8886 21.2133 30.2869 21.2133C28.9632 21.2133 27.9348 20.8031 27.2018 19.9826C26.4688 19.1511 26.1023 18.0462 26.1023 16.6677C26.1023 15.8034 26.2609 15.0267 26.5782 14.3374C26.8955 13.6373 27.355 13.0903 27.9567 12.6964C28.5584 12.3026 29.2585 12.1056 30.0572 12.1056C31.2059 12.1056 32.1139 12.494 32.7813 13.2708C33.4596 14.0366 33.7987 15.0923 33.7987 16.4379C33.7987 16.7662 33.7823 17.0397 33.7495 17.2585H28.0059ZM30.0736 13.4677C29.4828 13.4677 29.0015 13.681 28.6295 14.1077C28.2575 14.5344 28.0442 15.1689 27.9895 16.0113H32.01C31.9881 15.1908 31.8131 14.5617 31.4849 14.1241C31.1567 13.6865 30.6862 13.4677 30.0736 13.4677ZM42.7359 20.5405C42.4077 20.7484 42.0248 20.9125 41.5872 21.0328C41.1496 21.1532 40.6901 21.2133 40.2087 21.2133C39.2241 21.2133 38.4638 20.9617 37.9277 20.4585C37.3916 19.9443 37.1236 19.2496 37.1236 18.3744V13.681H35.2036V12.3354H37.1236V10.399L38.9615 10.1856V12.3354H41.899L41.6856 13.681H38.9615V18.3579C38.9615 18.8284 39.0819 19.1785 39.3226 19.4082C39.5632 19.627 39.9462 19.7364 40.4713 19.7364C41.0511 19.7364 41.5872 19.5997 42.0795 19.3262L42.7359 20.5405ZM60.4626 8.85641V21H58.8379L58.7067 19.9333C58.4222 20.3491 58.0721 20.6663 57.6564 20.8851C57.2407 21.1039 56.7812 21.2133 56.2779 21.2133C55.1949 21.2133 54.3798 20.8085 53.8328 19.999C53.2858 19.1894 53.0123 18.079 53.0123 16.6677C53.0123 15.7815 53.1491 14.9938 53.4226 14.3046C53.707 13.6154 54.1063 13.0793 54.6205 12.6964C55.1347 12.3026 55.7419 12.1056 56.442 12.1056C57.3282 12.1056 58.0557 12.4229 58.6246 13.0574V8.64308L60.4626 8.85641ZM56.9179 13.5169C56.2834 13.5169 55.7966 13.7795 55.4574 14.3046C55.1292 14.8188 54.9651 15.6065 54.9651 16.6677C54.9651 18.7682 55.5668 19.8185 56.7703 19.8185C57.4923 19.8185 58.1104 19.4027 58.6246 18.5713V14.4851C58.1761 13.8397 57.6072 13.5169 56.9179 13.5169ZM64.0828 17.2585C64.1375 18.1009 64.3782 18.7354 64.8049 19.1621C65.2425 19.5778 65.7895 19.7856 66.4459 19.7856C66.8507 19.7856 67.2336 19.7255 67.5946 19.6051C67.9666 19.4738 68.344 19.2824 68.7269 19.0308L69.5146 20.1467C69.1098 20.4858 68.6339 20.7484 68.0869 20.9344C67.5399 21.1203 66.9656 21.2133 66.3638 21.2133C65.0401 21.2133 64.0117 20.8031 63.2787 19.9826C62.5457 19.1511 62.1792 18.0462 62.1792 16.6677C62.1792 15.8034 62.3379 15.0267 62.6551 14.3374C62.9724 13.6373 63.4319 13.0903 64.0336 12.6964C64.6353 12.3026 65.3355 12.1056 66.1341 12.1056C67.2828 12.1056 68.1909 12.494 68.8582 13.2708C69.5365 14.0366 69.8756 15.0923 69.8756 16.4379C69.8756 16.7662 69.8592 17.0397 69.8264 17.2585H64.0828ZM66.1505 13.4677C65.5597 13.4677 65.0784 13.681 64.7064 14.1077C64.3344 14.5344 64.1211 15.1689 64.0664 16.0113H68.0869C68.065 15.1908 67.89 14.5617 67.5618 14.1241C67.2336 13.6865 66.7632 13.4677 66.1505 13.4677ZM79.1738 12.3354L76.1051 21H73.9718L70.9031 12.3354H72.8887L75.0713 19.4738L77.2867 12.3354H79.1738Z" fill="#FFFCF2"></path>
      <path d="M45.2403 22.7395L43.7797 22.0831L50.7377 7.67487L52.1818 8.34769L45.2403 22.7395Z" fill="#EB5E28"></path>
    </g>
    <defs>
      <filter id="filter0_d_2_814" x="16.755" y="7.34666" width="63.0753" height="18.1826" filterUnits="userSpaceOnUse" color-interpolation-filters="sRGB">
        <feFlood flood-opacity="0" result="BackgroundImageFix"></feFlood>
        <feColorMatrix in="SourceAlpha" type="matrix" values="0 0 0 0 0 0 0 0 0 0 0 0 0 0 0 0 0 0 127 0" result="hardAlpha"></feColorMatrix>
        <feOffset dy="0.328205"></feOffset>
        <feGaussianBlur stdDeviation="0.328205"></feGaussianBlur>
        <feColorMatrix type="matrix" values="0 0 0 0 0 0 0 0 0 0 0 0 0 0 0 0 0 0 0.25 0"></feColorMatrix>
        <feBlend mode="normal" in2="BackgroundImageFix" result="effect1_dropShadow_2_814"></feBlend>
        <feBlend mode="normal" in="SourceGraphic" in2="effect1_dropShadow_2_814" result="shape"></feBlend>
      </filter>
    </defs>
  </symbol>
  <symbol fill="none" xmlns="http://www.w3.org/2000/svg" viewBox="0 0 703 587" id="header-image-bg">
    <mask id="path-1-inside-1_2_781" fill="white">
      <path d="M613.647 586.582C658.65 536.2 688.182 473.916 698.707 407.186C709.233 340.456 700.305 272.106 672.994 210.317C645.683 148.529 601.145 95.9193 544.71 58.786C488.276 21.6526 422.336 1.56837 354.784 0.937222C287.232 0.306073 220.928 19.1547 163.81 55.2272C106.692 91.2996 61.1783 143.068 32.7173 204.335C4.25635 265.602 -5.94653 333.773 3.33002 400.689C12.6066 467.604 40.9695 530.429 85.024 581.643L351.5 352.422L613.647 586.582Z"></path>
    </mask>
    <path d="M613.647 586.582C658.65 536.2 688.182 473.916 698.707 407.186C709.233 340.456 700.305 272.106 672.994 210.317C645.683 148.529 601.145 95.9193 544.71 58.786C488.276 21.6526 422.336 1.56837 354.784 0.937222C287.232 0.306073 220.928 19.1547 163.81 55.2272C106.692 91.2996 61.1783 143.068 32.7173 204.335C4.25635 265.602 -5.94653 333.773 3.33002 400.689C12.6066 467.604 40.9695 530.429 85.024 581.643L351.5 352.422L613.647 586.582Z" fill="#252422"></path>
    <path d="M613.647 586.582L556.978 650.024L620.42 706.693L677.089 643.251L613.647 586.582ZM85.024 581.643L20.5343 637.117L76.0081 701.607L140.498 646.133L85.024 581.643ZM351.5 352.422L408.169 288.98L352.557 239.305L296.026 287.932L351.5 352.422ZM677.089 643.251C732.984 580.676 769.662 503.319 782.735 420.439L614.68 393.932C606.702 444.513 584.317 491.724 550.205 529.913L677.089 643.251ZM782.735 420.439C795.807 337.56 784.719 252.668 750.799 175.927L595.19 244.708C615.891 291.543 622.658 343.351 614.68 393.932L782.735 420.439ZM750.799 175.927C716.878 99.1847 661.561 33.8434 591.469 -12.2766L497.952 129.848C540.728 157.995 574.488 197.873 595.19 244.708L750.799 175.927ZM591.469 -12.2766C521.377 -58.3966 439.479 -83.3414 355.579 -84.1252L353.989 85.9997C405.193 86.4781 455.175 101.702 497.952 129.848L591.469 -12.2766ZM355.579 -84.1252C271.678 -84.9091 189.329 -61.4989 118.387 -16.6966L209.233 127.151C252.528 99.8084 302.785 85.5213 353.989 85.9997L355.579 -84.1252ZM118.387 -16.6966C47.446 28.1057 -9.08215 92.402 -44.431 168.497L109.866 240.173C131.439 193.733 165.938 154.494 209.233 127.151L118.387 -16.6966ZM-44.431 168.497C-79.7798 244.591 -92.4519 329.26 -80.9304 412.37L87.5904 389.008C80.5588 338.287 88.2925 286.613 109.866 240.173L-44.431 168.497ZM-80.9304 412.37C-69.4088 495.479 -34.1818 573.508 20.5343 637.117L149.514 526.17C116.121 487.35 94.6219 439.729 87.5904 389.008L-80.9304 412.37ZM140.498 646.133L406.974 416.911L296.026 287.932L29.5502 517.154L140.498 646.133ZM294.831 415.864L556.978 650.024L670.316 523.141L408.169 288.98L294.831 415.864Z" fill="#FBC89C" mask="url(#path-1-inside-1_2_781)"></path>
  </symbol>
  <symbol fill="" xmlns="http://www.w3.org/2000/svg" viewBox="0 0 12 12" id="icon-dribbble">
    <path fill-rule="evenodd" clip-rule="evenodd" d="M6 0C2.6875 0 0 2.6875 0 6C0 9.3125 2.6875 12 6 12C9.306 12 12 9.3125 12 6C12 2.6875 9.306 0 6 0ZM9.963 2.7655C10.7017 3.66517 11.1105 4.79045 11.1215 5.9545C10.9525 5.922 9.2605 5.577 7.5555 5.792C7.516 5.707 7.4835 5.616 7.4445 5.525C7.33846 5.2747 7.22575 5.02728 7.1065 4.783C8.9935 4.015 9.8525 2.909 9.963 2.7655ZM6 0.8855C7.3015 0.8855 8.4925 1.373 9.397 2.1735C9.306 2.3035 8.5315 3.3385 6.7095 4.0215C5.8695 2.4795 4.9395 1.2165 4.796 1.0215C5.19066 0.929344 5.59472 0.883535 6 0.885V0.8855ZM3.82 1.3665C3.9565 1.549 4.8675 2.818 5.72 4.3275C3.325 4.9655 1.21 4.9525 0.9825 4.9525C1.3145 3.3645 2.3885 2.0435 3.82 1.3665ZM0.872 6.0065V5.8505C1.0935 5.857 3.579 5.8895 6.137 5.1215C6.2865 5.408 6.423 5.7005 6.553 5.9935C6.488 6.013 6.4165 6.0325 6.3515 6.052C3.7095 6.9045 2.3035 9.234 2.1865 9.4295C1.34021 8.49026 0.8719 7.27077 0.872 6.0065ZM6 11.128C4.86101 11.1298 3.75432 10.7495 2.857 10.048C2.948 9.859 3.989 7.8545 6.8785 6.846C6.8915 6.8395 6.8985 6.8395 6.911 6.833C7.6335 8.7005 7.926 10.269 8.0045 10.718C7.386 10.985 6.7095 11.128 6 11.128ZM8.857 10.2495C8.805 9.937 8.5315 8.4405 7.861 6.5985C9.4685 6.345 10.874 6.7615 11.05 6.82C10.8285 8.245 10.0085 9.475 8.857 10.2495Z" fill=""></path>
  </symbol>
  <symbol fill="none" xmlns="http://www.w3.org/2000/svg" viewBox="0 0 12 12" id="icon-email">
    <path d="M8.25 9.897C7.56635 10.2931 6.7901 10.5013 6 10.5005M8 6C8 5.46957 7.78929 4.96086 7.41422 4.58579C7.03914 4.21071 6.53043 4 6 4C5.46957 4 4.96086 4.21071 4.58579 4.58579C4.21072 4.96086 4 5.46957 4 6C4 6.53043 4.21072 7.03914 4.58579 7.41421C4.96086 7.78929 5.46957 8 6 8C6.53043 8 7.03914 7.78929 7.41422 7.41421C7.78929 7.03914 8 6.53043 8 6ZM8 6V6.75C8 7.08152 8.1317 7.39946 8.36612 7.63388C8.60054 7.8683 8.91848 8 9.25 8C9.58152 8 9.89946 7.8683 10.1339 7.63388C10.3683 7.39946 10.5 7.08152 10.5 6.75V6C10.5 5.10998 10.2361 4.23996 9.74162 3.49993C9.24715 2.75991 8.54434 2.18314 7.72208 1.84254C6.89981 1.50195 5.99501 1.41283 5.1221 1.58647C4.24918 1.7601 3.44736 2.18868 2.81802 2.81802C2.18869 3.44736 1.7601 4.24918 1.58647 5.12209C1.41283 5.99501 1.50195 6.89981 1.84254 7.72208C2.18314 8.54434 2.75991 9.24715 3.49994 9.74161C4.23996 10.2361 5.10999 10.5 6 10.5L8 6Z" stroke="#F9B171" stroke-linecap="round" stroke-linejoin="round"></path>
  </symbol>  
  <symbol fill="" xmlns="http://www.w3.org/2000/svg" viewBox="0 0 576 512" id="icon-live">
    <path d="M572.52 241.4C518.29 135.59 410.93 64 288 64C165.07 64 57.6799 135.64 3.47994 241.41C1.19236 245.935 0.000488281 250.935 0.000488281 256.005C0.000488281 261.075 1.19236 266.075 3.47994 270.6C57.7099 376.41 165.07 448 288 448C410.93 448 518.32 376.36 572.52 270.59C574.808 266.065 575.999 261.065 575.999 255.995C575.999 250.925 574.808 245.925 572.52 241.4V241.4ZM288 400C259.519 400 231.678 391.555 207.998 375.732C184.317 359.909 165.86 337.419 154.961 311.106C144.062 284.794 141.211 255.84 146.767 227.907C152.323 199.974 166.038 174.315 186.177 154.177C206.315 134.038 231.974 120.323 259.907 114.767C287.84 109.211 316.794 112.062 343.106 122.961C369.419 133.86 391.909 152.317 407.732 175.998C423.554 199.679 432 227.519 432 256C432.009 274.913 428.291 293.642 421.057 311.117C413.824 328.592 403.217 344.47 389.844 357.844C376.47 371.217 360.592 381.824 343.117 389.057C325.642 396.291 306.913 400.009 288 400V400ZM288 160C279.431 160.12 270.918 161.395 262.69 163.79C269.472 173.007 272.727 184.349 271.864 195.759C271 207.17 266.076 217.893 257.985 225.985C249.893 234.077 239.17 239 227.759 239.864C216.349 240.727 205.007 237.472 195.79 230.69C190.542 250.026 191.489 270.521 198.499 289.29C205.509 308.059 218.228 324.158 234.866 335.32C251.504 346.481 271.224 352.145 291.25 351.512C311.275 350.879 330.598 343.983 346.499 331.793C362.399 319.603 374.077 302.734 379.888 283.56C385.699 264.386 385.351 243.872 378.893 224.906C372.435 205.94 360.191 189.476 343.886 177.833C327.581 166.19 308.035 159.953 288 160V160Z" fill=""></path>
  </symbol>
  <symbol fill="" xmlns="http://www.w3.org/2000/svg" viewBox="0 0 24 24" id="icon-code">
    <path d="M17.5 4C15.57 4 14 5.57 14 7.5C14 9.054 15.025 10.359 16.43 10.815C16.284 11.747 15.883 12.515 15.2 13.138C13.254 14.911 9.673 15.073 8 15.045V8.837C9.44 8.403 10.5 7.08 10.5 5.5C10.5 3.57 8.93 2 7 2C5.07 2 3.5 3.57 3.5 5.5C3.5 7.08 4.56 8.403 6 8.837V15.163C4.56 15.597 3.5 16.92 3.5 18.5C3.5 20.43 5.07 22 7 22C8.93 22 10.5 20.43 10.5 18.5C10.5 17.949 10.36 17.435 10.133 16.971C12.193 16.785 14.79 16.214 16.542 14.621C17.639 13.624 18.273 12.357 18.446 10.853C19.915 10.438 21 9.1 21 7.5C21 5.57 19.43 4 17.5 4ZM5.5 5.5C5.5 4.673 6.173 4 7 4C7.827 4 8.5 4.673 8.5 5.5C8.5 6.327 7.827 7 7 7C6.173 7 5.5 6.327 5.5 5.5ZM7 20C6.173 20 5.5 19.327 5.5 18.5C5.5005 18.1056 5.65629 17.7273 5.93366 17.4469C6.21103 17.1666 6.58765 17.0067 6.982 17.002L7.112 17.012C7.30819 17.0194 7.50102 17.0653 7.67947 17.1472C7.85791 17.229 8.01849 17.3452 8.15202 17.4892C8.28555 17.6331 8.38942 17.8019 8.45771 17.986C8.52599 18.1701 8.55735 18.3658 8.55 18.562C8.54265 18.7582 8.49672 18.951 8.41485 19.1295C8.33297 19.3079 8.21675 19.4685 8.07282 19.602C7.92889 19.7355 7.76007 19.8394 7.57599 19.9077C7.39192 19.976 7.19619 20.0074 7 20ZM17.5 9C16.673 9 16 8.327 16 7.5C16 6.673 16.673 6 17.5 6C18.327 6 19 6.673 19 7.5C19 8.327 18.327 9 17.5 9Z" fill=""></path>
  </symbol>
  <symbol fill="" xmlns="http://www.w3.org/2000/svg" viewBox="0 0 488 320" id="icon-about"  preserveAspectRatio="none">
    <path d="M141.743 83.2533L0.771118 163.524V202.844L141.743 282.934V226.219L62.7409 183.094L141.743 140.15V83.2533Z" fill="" fill-opacity="0.1"/>
    <path d="M200.995 0.445679H151.709L273.112 319.355H322.76L200.995 0.445679Z" fill="" fill-opacity="0.1"/>
    <path d="M487.289 163.524L346.497 83.2533V140.15L425.681 183.094L346.497 226.219V282.934L487.289 202.844V163.524Z" fill="" fill-opacity="0.1"/>
  </symbol>
  <symbol fill="" xmlns="http://www.w3.org/2000/svg" viewBox="0 0 24 24" id="icon-facebook">
    <path d="M13.397 20.997V12.801H16.162L16.573 9.592H13.397V7.548C13.397 6.622 13.655 5.988 14.984 5.988H16.668V3.127C15.8487 3.03919 15.0251 2.99679 14.201 3C11.757 3 10.079 4.492 10.079 7.231V9.586H7.33203V12.795H10.085V20.997H13.397Z" fill=""></path>
  </symbol>
  <symbol fill="" xmlns="http://www.w3.org/2000/svg" viewBox="0 0 24 24" id="icon-link">
    <path d="M18.4445 13.9259V19.9259C18.4445 20.4564 18.2337 20.9651 17.8587 21.3401C17.4836 21.7152 16.9749 21.9259 16.4445 21.9259H5.44446C4.91403 21.9259 4.40532 21.7152 4.03024 21.3401C3.65517 20.9651 3.44446 20.4564 3.44446 19.9259V8.92592C3.44446 8.39549 3.65517 7.88678 4.03024 7.5117C4.40532 7.13663 4.91403 6.92592 5.44446 6.92592H11.4445" stroke="" stroke-width="2" stroke-linecap="round" stroke-linejoin="round"></path>
    <path d="M15.4445 3.92592H21.4445V9.92592" stroke="" stroke-width="2" stroke-linecap="round" stroke-linejoin="round"></path>
    <path d="M10.4445 14.9259L21.4445 3.92592" stroke="" stroke-width="2" stroke-linecap="round" stroke-linejoin="round"></path>
  </symbol>
  <symbol fill="" xmlns="http://www.w3.org/2000/svg" viewBox="0 0 24 24" id="icon-linkedin">
    <path fill-rule="evenodd" clip-rule="evenodd" d="M10.2003 9.8783H12.8001V11.1733C13.1746 10.4285 14.135 9.7593 15.5777 9.7593C18.3434 9.7593 19 11.2419 19 13.9621V19H16.2V14.5816C16.2 13.0325 15.8255 12.1589 14.8721 12.1589C13.5498 12.1589 13.0003 13.1004 13.0003 14.5809V19H10.2003V9.8783ZM5.399 18.881H8.199V9.7593H5.399V18.881ZM8.6001 6.785C8.6002 7.01969 8.55366 7.25206 8.46317 7.46861C8.37268 7.68516 8.24006 7.88156 8.073 8.0464C7.73448 8.38284 7.27627 8.57116 6.799 8.57C6.32257 8.56968 5.86542 8.38184 5.5264 8.0471C5.35995 7.8817 5.22777 7.68508 5.13744 7.4685C5.04711 7.25193 5.00041 7.01966 5 6.785C5 6.3111 5.189 5.8575 5.5271 5.5229C5.86582 5.18771 6.32317 4.99979 6.7997 5C7.2771 5 7.7349 5.1883 8.073 5.5229C8.4104 5.8575 8.6001 6.3111 8.6001 6.785Z" fill=""></path>
  </symbol>
  <symbol fill="" xmlns="http://www.w3.org/2000/svg" viewBox="0 0 24 24" id="icon-twitter">
    <path d="M21.9924 5.92785C21.2572 6.25363 20.4674 6.47376 19.6371 6.57325C20.4938 6.06062 21.1348 5.25381 21.4404 4.30335C20.6355 4.78144 19.7545 5.11797 18.8359 5.2983C18.2181 4.63869 17.3998 4.2015 16.5081 4.05458C15.6164 3.90767 14.7012 4.05927 13.9044 4.48583C13.1077 4.91239 12.4741 5.59006 12.102 6.41362C11.7299 7.23718 11.6401 8.16056 11.8465 9.04039C10.2156 8.9585 8.62008 8.53459 7.16357 7.79617C5.70706 7.05775 4.42209 6.02132 3.39206 4.75416C3.03986 5.3617 2.83735 6.06609 2.83735 6.81627C2.83695 7.4916 3.00326 8.15659 3.32151 8.75223C3.63976 9.34787 4.10011 9.85575 4.66172 10.2308C4.0104 10.2101 3.37345 10.0341 2.80389 9.71748V9.77031C2.80382 10.7175 3.13146 11.6355 3.73121 12.3686C4.33095 13.1018 5.16587 13.6048 6.09428 13.7924C5.49008 13.9559 4.85661 13.98 4.24173 13.8628C4.50367 14.6778 5.01392 15.3905 5.70103 15.9011C6.38814 16.4117 7.21772 16.6947 8.07363 16.7103C6.62067 17.8509 4.82628 18.4696 2.97911 18.4669C2.6519 18.467 2.32497 18.4479 2 18.4097C3.87498 19.6152 6.0576 20.255 8.2867 20.2526C15.8325 20.2526 19.9576 14.0028 19.9576 8.58253C19.9576 8.40643 19.9532 8.22857 19.9453 8.05247C20.7477 7.47221 21.4403 6.75366 21.9907 5.93049L21.9924 5.92785Z" fill=""></path>
  </symbol><symbol fill="" xmlns="http://www.w3.org/2000/svg" viewBox="0 0 18 14" id="icon-check">
    <path d="M5.6 10.6L1.4 6.4L0 7.8L5.6 13.4L17.6 1.4L16.2 0L5.6 10.6Z" fill="" />
  </symbol>
  <symbol fill="none" xmlns="http://www.w3.org/2000/svg" viewBox="0 0 24 24" id="icon-download">
    <path d="M20 14.6667V18.2223C20 18.6938 19.8127 19.146 19.4793 19.4794C19.1459 19.8128 18.6937 20.0001 18.2222 20.0001H5.77778C5.30628 20.0001 4.8541 19.8128 4.5207 19.4794C4.1873 19.146 4 18.6938 4 18.2223V14.6667" stroke="#F9B171" stroke-width="1.5" stroke-linecap="round" stroke-linejoin="round"></path>
    <path d="M7.55554 10.2222L12 14.6666L16.4444 10.2222" stroke="#F9B171" stroke-width="1.5" stroke-linecap="round" stroke-linejoin="round"></path>
    <path d="M12 14.6667V4" stroke="#F9B171" stroke-width="1.5" stroke-linecap="round" stroke-linejoin="round"></path>
  </symbol>
  <symbol fill="none" xmlns="http://www.w3.org/2000/svg" viewBox="0 0 24 24" id="icon-instagram">
    <path fill-rule="evenodd" clip-rule="evenodd" d="M7.465 1.066C8.638 1.012 9.012 1 12 1C14.988 1 15.362 1.013 16.534 1.066C17.706 1.119 18.506 1.306 19.206 1.577C19.939 1.854 20.604 2.287 21.154 2.847C21.714 3.396 22.146 4.06 22.422 4.794C22.694 5.494 22.88 6.294 22.934 7.464C22.988 8.639 23 9.013 23 12C23 14.988 22.987 15.362 22.934 16.535C22.881 17.705 22.694 18.505 22.422 19.205C22.146 19.9391 21.7133 20.6042 21.154 21.154C20.604 21.714 19.939 22.146 19.206 22.422C18.506 22.694 17.706 22.88 16.536 22.934C15.362 22.988 14.988 23 12 23C9.012 23 8.638 22.987 7.465 22.934C6.295 22.881 5.495 22.694 4.795 22.422C4.06092 22.146 3.39582 21.7133 2.846 21.154C2.28638 20.6047 1.85331 19.9399 1.577 19.206C1.306 18.506 1.12 17.706 1.066 16.536C1.012 15.361 1 14.987 1 12C1 9.012 1.013 8.638 1.066 7.466C1.119 6.294 1.306 5.494 1.577 4.794C1.85372 4.06008 2.28712 3.39531 2.847 2.846C3.39604 2.2865 4.06047 1.85344 4.794 1.577C5.494 1.306 6.294 1.12 7.464 1.066H7.465ZM16.445 3.046C15.285 2.993 14.937 2.982 12 2.982C9.063 2.982 8.715 2.993 7.555 3.046C6.482 3.095 5.9 3.274 5.512 3.425C4.999 3.625 4.632 3.862 4.247 4.247C3.88205 4.60205 3.60118 5.03428 3.425 5.512C3.274 5.9 3.095 6.482 3.046 7.555C2.993 8.715 2.982 9.063 2.982 12C2.982 14.937 2.993 15.285 3.046 16.445C3.095 17.518 3.274 18.1 3.425 18.488C3.601 18.965 3.882 19.398 4.247 19.753C4.602 20.118 5.035 20.399 5.512 20.575C5.9 20.726 6.482 20.905 7.555 20.954C8.715 21.007 9.062 21.018 12 21.018C14.938 21.018 15.285 21.007 16.445 20.954C17.518 20.905 18.1 20.726 18.488 20.575C19.001 20.375 19.368 20.138 19.753 19.753C20.118 19.398 20.399 18.965 20.575 18.488C20.726 18.1 20.905 17.518 20.954 16.445C21.007 15.285 21.018 14.937 21.018 12C21.018 9.063 21.007 8.715 20.954 7.555C20.905 6.482 20.726 5.9 20.575 5.512C20.375 4.999 20.138 4.632 19.753 4.247C19.3979 3.88207 18.9657 3.60121 18.488 3.425C18.1 3.274 17.518 3.095 16.445 3.046V3.046ZM10.595 15.391C11.3797 15.7176 12.2534 15.7617 13.0669 15.5157C13.8805 15.2697 14.5834 14.7489 15.0556 14.0422C15.5278 13.3356 15.7401 12.4869 15.656 11.6411C15.572 10.7953 15.197 10.005 14.595 9.405C14.2112 9.02148 13.7472 8.72781 13.2363 8.54515C12.7255 8.36248 12.1804 8.29536 11.6405 8.34862C11.1006 8.40187 10.5792 8.57418 10.1138 8.85313C9.64846 9.13208 9.25074 9.51074 8.9493 9.96185C8.64786 10.413 8.45019 10.9253 8.37052 11.462C8.29084 11.9986 8.33115 12.5463 8.48854 13.0655C8.64593 13.5847 8.91648 14.0626 9.28072 14.4647C9.64496 14.8668 10.0938 15.1832 10.595 15.391ZM8.002 8.002C8.52702 7.47698 9.15032 7.0605 9.8363 6.77636C10.5223 6.49222 11.2575 6.34597 12 6.34597C12.7425 6.34597 13.4777 6.49222 14.1637 6.77636C14.8497 7.0605 15.473 7.47698 15.998 8.002C16.523 8.52702 16.9395 9.15032 17.2236 9.8363C17.5078 10.5223 17.654 11.2575 17.654 12C17.654 12.7425 17.5078 13.4777 17.2236 14.1637C16.9395 14.8497 16.523 15.473 15.998 15.998C14.9377 17.0583 13.4995 17.654 12 17.654C10.5005 17.654 9.06234 17.0583 8.002 15.998C6.94166 14.9377 6.34597 13.4995 6.34597 12C6.34597 10.5005 6.94166 9.06234 8.002 8.002V8.002ZM18.908 7.188C19.0381 7.06527 19.1423 6.91768 19.2143 6.75397C19.2863 6.59027 19.3248 6.41377 19.3274 6.23493C19.33 6.05609 19.2967 5.87855 19.2295 5.71281C19.1622 5.54707 19.0624 5.39651 18.936 5.27004C18.8095 5.14357 18.6589 5.04376 18.4932 4.97652C18.3275 4.90928 18.1499 4.87598 17.9711 4.87858C17.7922 4.88119 17.6157 4.91965 17.452 4.9917C17.2883 5.06374 17.1407 5.1679 17.018 5.298C16.7793 5.55103 16.6486 5.88712 16.6537 6.23493C16.6588 6.58274 16.7992 6.91488 17.0452 7.16084C17.2911 7.40681 17.6233 7.54723 17.9711 7.5523C18.3189 7.55737 18.655 7.42669 18.908 7.188V7.188Z" fill="#F9B171"></path>
  </symbol>
</svg>